<?xml version="1.0" encoding="utf-8"?>
<!-- Generator: Adobe Illustrator 15.0.0, SVG Export Plug-In . SVG Version: 6.00 Build 0)  -->
<!DOCTYPE svg PUBLIC "-//W3C//DTD SVG 1.1//EN" "http://www.w3.org/Graphics/SVG/1.1/DTD/svg11.dtd">
<svg version="1.1" id="Layer_1" xmlns="http://www.w3.org/2000/svg" xmlns:xlink="http://www.w3.org/1999/xlink" x="0px" y="0px"
	 width="405px" height="200px" viewBox="0 0 405 200" enable-background="new 0 0 405 200" xml:space="preserve">
<g id="XMLID_368_">
	<g id="XMLID_704_" opacity="0.1">
		<path fill="#020202" d="M394.689,32.735L394.689,32.735c0,11.846-9.602,21.447-21.445,21.447h-75.5
			c-7.443,0-13.477,6.034-13.477,13.479l0,0c0,7.443,6.033,13.478,13.477,13.478h17.727c9.232,0,16.715,7.483,16.715,16.713l0,0
			c0,9.23-7.482,16.712-16.715,16.712h-42.986c-8.969,0-16.24,7.273-16.24,16.244l0,0c0,8.973,7.271,16.244,16.24,16.244h110.113
			c9.965,0,18.045,8.08,18.045,18.043l0,0c0,10.039-8.189,18.145-18.225,18.045l-83.934-0.842
			c-9.17-0.094-16.459,7.668-15.801,16.812l0,0l-166.726-0.977l0,0c0-21.293-17.259-38.555-38.553-38.555H19.273
			C8.629,159.58,0,150.951,0,140.308l0,0c0-10.691,8.703-19.342,19.395-19.271l57.356,0.357v-5.129
			c0-12.211,9.899-22.113,22.113-22.113l0,0c11.038,0,19.985-8.946,19.985-19.985l0,0c0-11.037-8.947-19.984-19.985-19.984h-71.74
			c-11.844,0-21.447-9.602-21.447-21.447l0,0c0-11.844,9.603-21.445,21.447-21.445h346.12
			C385.088,11.29,394.689,20.891,394.689,32.735z"/>
	</g>
	<g id="XMLID_125_">
		<g id="XMLID_279_">
			<rect x="236.979" y="96.979" fill="#FFFFFF" width="84.377" height="101.542"/>
		</g>
		<g id="XMLID_124_">
			<polygon id="XMLID_583_" fill="#0686D8" points="322.834,198.521 319.879,198.521 319.879,98.456 238.455,98.456 
				238.455,159.359 235.5,159.359 235.5,95.501 322.834,95.501 			"/>
		</g>
		<g id="XMLID_275_">
			<rect x="269.168" y="168.369" fill="#9ECFEF" width="19.998" height="29.57"/>
		</g>
		<g id="XMLID_273_">
			<path id="XMLID_580_" fill="#0686D8" d="M290.643,199.416h-22.951V166.89h22.951V199.416z M270.646,196.462h17.041v-26.617
				h-17.041V196.462z"/>
		</g>
		<g id="XMLID_272_">
			<rect id="XMLID_579_" x="277.689" y="170.49" fill="#0686D8" width="2.955" height="25.328"/>
		</g>
		<g id="XMLID_271_">
			<rect x="245.965" y="111.259" fill="#9ECFEF" width="9.809" height="9.811"/>
		</g>
		<g id="XMLID_270_">
			<rect x="264.479" y="111.259" fill="#9ECFEF" width="9.809" height="9.811"/>
		</g>
		<g id="XMLID_269_">
			<rect x="282.992" y="111.259" fill="#9ECFEF" width="9.809" height="9.811"/>
		</g>
		<g id="XMLID_268_">
			<rect x="301.506" y="111.259" fill="#9ECFEF" width="9.811" height="9.811"/>
		</g>
		<g id="XMLID_257_">
			<rect x="245.965" y="128.222" fill="#9ECFEF" width="9.809" height="9.812"/>
		</g>
		<g id="XMLID_255_">
			<rect x="264.479" y="128.222" fill="#9ECFEF" width="9.809" height="9.812"/>
		</g>
		<g id="XMLID_107_">
			<rect x="282.992" y="128.222" fill="#9ECFEF" width="9.809" height="9.812"/>
		</g>
		<g id="XMLID_77_">
			<rect x="301.506" y="128.222" fill="#9ECFEF" width="9.811" height="9.812"/>
		</g>
		<g id="XMLID_68_">
			<rect x="245.965" y="145.185" fill="#9ECFEF" width="9.809" height="9.812"/>
		</g>
		<g id="XMLID_249_">
			<rect x="264.479" y="145.185" fill="#9ECFEF" width="9.809" height="9.812"/>
		</g>
		<g id="XMLID_64_">
			<rect x="282.992" y="145.185" fill="#9ECFEF" width="9.809" height="9.812"/>
		</g>
		<g id="XMLID_62_">
			<rect x="301.506" y="145.185" fill="#9ECFEF" width="9.811" height="9.812"/>
		</g>
		<g id="XMLID_61_">
			<path id="XMLID_576_" fill="#0686D8" d="M257.252,122.548h-12.764v-12.766h12.764V122.548z M247.443,119.593h6.854v-6.855h-6.854
				V119.593z"/>
		</g>
		<g id="XMLID_60_">
			<path id="XMLID_573_" fill="#0686D8" d="M275.766,122.548h-12.764v-12.766h12.764V122.548z M265.955,119.593h6.855v-6.855h-6.855
				V119.593z"/>
		</g>
		<g id="XMLID_242_">
			<path id="XMLID_570_" fill="#0686D8" d="M294.277,122.548h-12.762v-12.766h12.762V122.548z M284.469,119.593h6.855v-6.855h-6.855
				V119.593z"/>
		</g>
		<g id="XMLID_241_">
			<path id="XMLID_567_" fill="#0686D8" d="M312.793,122.548h-12.766v-12.766h12.766V122.548z M302.982,119.593h6.857v-6.855h-6.857
				V119.593z"/>
		</g>
		<g id="XMLID_230_">
			<path id="XMLID_564_" fill="#0686D8" d="M257.252,139.511h-12.764v-12.766h12.764V139.511z M247.443,136.556h6.854v-6.855h-6.854
				V136.556z"/>
		</g>
		<g id="XMLID_227_">
			<path id="XMLID_561_" fill="#0686D8" d="M275.766,139.511h-12.764v-12.766h12.764V139.511z M265.955,136.556h6.855v-6.855h-6.855
				V136.556z"/>
		</g>
		<g id="XMLID_219_">
			<path id="XMLID_558_" fill="#0686D8" d="M294.277,139.511h-12.762v-12.766h12.762V139.511z M284.469,136.556h6.855v-6.855h-6.855
				V136.556z"/>
		</g>
		<g id="XMLID_208_">
			<path id="XMLID_555_" fill="#0686D8" d="M312.793,139.511h-12.766v-12.766h12.766V139.511z M302.982,136.556h6.857v-6.855h-6.857
				V136.556z"/>
		</g>
		<g id="XMLID_204_">
			<path id="XMLID_552_" fill="#0686D8" d="M257.252,156.474h-12.764v-12.766h12.764V156.474z M247.443,153.519h6.854v-6.855h-6.854
				V153.519z"/>
		</g>
		<g id="XMLID_203_">
			<rect x="245.965" y="168.285" fill="#9ECFEF" width="9.809" height="21.785"/>
		</g>
		<g id="XMLID_200_">
			<rect x="301.506" y="168.285" fill="#9ECFEF" width="9.811" height="21.785"/>
		</g>
		<g id="XMLID_197_">
			<path id="XMLID_549_" fill="#0686D8" d="M257.252,191.546h-12.764v-24.738h12.764V191.546z M247.443,188.591h6.854v-18.828
				h-6.854V188.591z"/>
		</g>
		<g id="XMLID_191_">
			<path id="XMLID_546_" fill="#0686D8" d="M312.793,191.546h-12.766v-24.738h12.766V191.546z M302.982,188.591h6.857v-18.828
				h-6.857V188.591z"/>
		</g>
		<g id="XMLID_59_">
			<path id="XMLID_538_" fill="#0686D8" d="M275.766,156.474h-12.764v-12.766h12.764V156.474z M265.955,153.519h6.855v-6.855h-6.855
				V153.519z"/>
		</g>
		<g id="XMLID_58_">
			<path id="XMLID_535_" fill="#0686D8" d="M294.277,156.474h-12.762v-12.766h12.762V156.474z M284.469,153.519h6.855v-6.855h-6.855
				V153.519z"/>
		</g>
		<g id="XMLID_165_">
			<path id="XMLID_532_" fill="#0686D8" d="M312.793,156.474h-12.766v-12.766h12.766V156.474z M302.982,153.519h6.857v-6.855h-6.857
				V153.519z"/>
		</g>
		<g id="XMLID_57_">
			<rect x="233.564" y="88.168" fill="#D2E9F7" width="91.205" height="12.111"/>
		</g>
		<g id="XMLID_160_">
			<path id="XMLID_529_" fill="#0686D8" d="M323.783,101.757h-89.232c-1.359,0-2.463-1.104-2.463-2.463V89.153
				c0-1.358,1.104-2.463,2.463-2.463h89.232c1.359,0,2.463,1.104,2.463,2.463v10.141
				C326.246,100.654,325.143,101.757,323.783,101.757z M235.043,98.802h88.248v-9.156h-88.248V98.802z"/>
		</g>
		<g id="XMLID_158_">
			<path id="XMLID_526_" fill="#0686D8" d="M252.688,84.417c-0.264,0-0.533-0.065-0.779-0.196h-0.004l-3.844-2.043l-3.861,2.013
				c-0.578,0.297-1.254,0.242-1.77-0.143c-0.516-0.381-0.762-1.008-0.646-1.64l0.75-4.278l-3.105-3.051
				c-0.455-0.442-0.617-1.1-0.418-1.708c0.197-0.612,0.715-1.046,1.35-1.139l4.316-0.608l1.941-3.896
				c0.562-1.14,2.426-1.143,2.996,0.007l1.914,3.917l4.303,0.643c0.629,0.09,1.145,0.527,1.342,1.135
				c0.199,0.609,0.037,1.266-0.422,1.716l-3.135,3.03l0.721,4.291c0.107,0.627-0.148,1.254-0.666,1.63
				C253.375,84.31,253.033,84.417,252.688,84.417z M248.072,78.84l2.92,1.549l-0.547-3.259l2.375-2.297l-3.268-0.488l-1.451-2.971
				l-1.475,2.959l-3.273,0.461l2.357,2.316l-0.57,3.257L248.072,78.84z"/>
		</g>
		<g id="XMLID_153_">
			<path id="XMLID_523_" fill="#0686D8" d="M273.082,84.417c-0.266,0-0.535-0.065-0.781-0.196h-0.004l-3.846-2.043l-3.861,2.013
				c-0.568,0.293-1.24,0.242-1.756-0.133c-0.518-0.377-0.771-1.003-0.664-1.632l0.754-4.296l-3.104-3.051
				c-0.459-0.454-0.617-1.107-0.416-1.716c0.199-0.606,0.717-1.038,1.348-1.131l4.314-0.608l1.943-3.896
				c0.281-0.57,0.854-0.926,1.494-0.926c0.002,0,0.006,0,0.01,0c0.645,0.004,1.219,0.367,1.496,0.946l1.908,3.903l4.305,0.643
				c0.629,0.092,1.145,0.527,1.342,1.137c0.199,0.609,0.037,1.266-0.422,1.714l-3.135,3.03l0.719,4.293
				c0.107,0.625-0.148,1.252-0.666,1.63C273.768,84.31,273.426,84.417,273.082,84.417z M268.463,78.84l2.92,1.549l-0.545-3.259
				l2.377-2.297l-3.271-0.488l-1.449-2.971l-1.477,2.959l-3.273,0.461l2.357,2.316l-0.57,3.257L268.463,78.84z"/>
		</g>
		<g id="XMLID_152_">
			<path id="XMLID_520_" fill="#0686D8" d="M293.475,84.417c-0.268,0-0.537-0.065-0.785-0.196l-3.846-2.043l-3.861,2.013
				c-0.57,0.295-1.248,0.242-1.766-0.139s-0.768-1.012-0.65-1.644l0.75-4.278l-3.104-3.051c-0.455-0.442-0.617-1.098-0.42-1.708
				c0.197-0.608,0.713-1.044,1.348-1.139l4.32-0.608l1.939-3.896c0.562-1.14,2.426-1.143,2.996,0.007l1.914,3.917l4.303,0.643
				c0.629,0.09,1.145,0.527,1.344,1.135c0.197,0.609,0.035,1.266-0.424,1.716l-3.133,3.03l0.719,4.291
				c0.107,0.631-0.148,1.256-0.67,1.632C294.156,84.31,293.816,84.417,293.475,84.417z M288.855,78.84l2.92,1.549l-0.547-3.259
				l2.377-2.297l-3.27-0.488l-1.449-2.971l-1.477,2.959l-3.273,0.461l2.357,2.316l-0.57,3.257L288.855,78.84z"/>
		</g>
		<g id="XMLID_149_">
			<path id="XMLID_56_" fill="#0686D8" d="M313.865,84.417c-0.268,0-0.535-0.065-0.781-0.196h-0.004l-3.846-2.043l-3.859,2.013
				c-0.572,0.293-1.242,0.242-1.758-0.133c-0.518-0.377-0.771-1.003-0.664-1.632l0.758-4.296l-3.107-3.051
				c-0.459-0.454-0.615-1.107-0.416-1.716c0.201-0.606,0.719-1.038,1.35-1.131l4.314-0.608l1.943-3.896
				c0.279-0.57,0.854-0.926,1.494-0.926c0.002,0,0.006,0,0.01,0c0.645,0.004,1.217,0.367,1.494,0.946l1.908,3.903l4.305,0.643
				c0.629,0.092,1.145,0.527,1.344,1.137c0.197,0.609,0.037,1.266-0.424,1.714l-3.133,3.03l0.719,4.291
				c0.102,0.643-0.158,1.266-0.676,1.635C314.547,84.31,314.205,84.417,313.865,84.417z M309.246,78.84l2.922,1.551l-0.545-3.261
				l2.375-2.297l-3.27-0.488l-1.451-2.971l-1.477,2.959l-3.271,0.461l2.359,2.316l-0.572,3.256L309.246,78.84z"/>
		</g>
		<g id="XMLID_128_">
			<g id="XMLID_131_">
				<circle fill="#9ECFEF" cx="337.729" cy="176.136" r="7.448"/>
			</g>
			<g id="XMLID_130_">
				<path id="XMLID_54_" fill="#0686D8" d="M337.73,185.062c-4.922,0-8.926-4.004-8.926-8.926s4.004-8.924,8.926-8.924
					c4.92,0,8.924,4.002,8.924,8.924S342.65,185.062,337.73,185.062z M337.73,170.167c-3.293,0-5.971,2.678-5.971,5.969
					s2.678,5.971,5.971,5.971c3.291,0,5.969-2.68,5.969-5.971S341.021,170.167,337.73,170.167z"/>
			</g>
			<g id="XMLID_129_">
				<rect id="XMLID_53_" x="336.252" y="183.9" fill="#0686D8" width="2.955" height="13.719"/>
			</g>
		</g>
	</g>
	<g id="XMLID_168_">
		<g id="XMLID_267_">
			<path id="XMLID_52_" fill="#0686D8" d="M263.828,26.556h-8.42c-0.814,0-1.477-0.662-1.477-1.477c0-0.816,0.662-1.478,1.477-1.478
				h8.42c0.816,0,1.479,0.662,1.479,1.478C265.307,25.895,264.645,26.556,263.828,26.556z"/>
		</g>
		<g id="XMLID_262_">
			<path id="XMLID_51_" fill="#0686D8" d="M259.619,30.766c-0.814,0-1.477-0.662-1.477-1.478V20.87c0-0.816,0.662-1.478,1.477-1.478
				c0.816,0,1.479,0.662,1.479,1.478v8.418C261.098,30.104,260.436,30.766,259.619,30.766z"/>
		</g>
	</g>
	<g id="XMLID_280_">
		<g id="XMLID_287_">
			<path id="XMLID_50_" fill="#0686D8" d="M26.076,104.23h-8.42c-0.816,0-1.478-0.66-1.478-1.477s0.662-1.477,1.478-1.477h8.42
				c0.815,0,1.477,0.66,1.477,1.477S26.891,104.23,26.076,104.23z"/>
		</g>
		<g id="XMLID_282_">
			<path id="XMLID_49_" fill="#0686D8" d="M21.867,108.439c-0.816,0-1.478-0.66-1.478-1.477v-8.418c0-0.815,0.662-1.477,1.478-1.477
				c0.815,0,1.477,0.661,1.477,1.477v8.418C23.344,107.779,22.682,108.439,21.867,108.439z"/>
		</g>
	</g>
	<g id="XMLID_348_">
		<g id="XMLID_350_">
			<path id="XMLID_47_" fill="#0686D8" d="M345.896,69.757h-8.418c-0.816,0-1.479-0.662-1.479-1.479
				c0-0.814,0.662-1.477,1.479-1.477h8.418c0.816,0,1.477,0.662,1.477,1.477C347.373,69.095,346.713,69.757,345.896,69.757z"/>
		</g>
		<g id="XMLID_349_">
			<path id="XMLID_46_" fill="#0686D8" d="M341.688,73.968c-0.816,0-1.479-0.662-1.479-1.479v-8.421
				c0-0.815,0.662-1.478,1.479-1.478s1.477,0.662,1.477,1.478v8.421C343.164,73.306,342.504,73.968,341.688,73.968z"/>
		</g>
	</g>
	<g id="XMLID_41_">
		<g id="XMLID_44_">
			<path id="XMLID_45_" fill="#0686D8" d="M87.116,41.94c-0.379,0-0.756-0.144-1.044-0.433c-0.577-0.577-0.577-1.512,0-2.089
				l5.954-5.954c0.577-0.577,1.512-0.577,2.089,0c0.577,0.577,0.577,1.512,0,2.089l-5.954,5.954
				C87.872,41.796,87.495,41.94,87.116,41.94z"/>
		</g>
		<g id="XMLID_42_">
			<path id="XMLID_43_" fill="#0686D8" d="M93.069,41.94c-0.379,0-0.756-0.144-1.044-0.433l-5.954-5.954
				c-0.577-0.577-0.577-1.512,0-2.089s1.512-0.577,2.089,0l5.954,5.954c0.577,0.577,0.577,1.512,0,2.089
				C93.826,41.796,93.448,41.94,93.069,41.94z"/>
		</g>
	</g>
	<g id="XMLID_351_">
		<g id="XMLID_353_">
			<path id="XMLID_485_" fill="#0686D8" d="M31.847,178.447c-0.379,0-0.756-0.146-1.045-0.436c-0.577-0.576-0.577-1.512,0-2.088
				l5.954-5.953c0.577-0.576,1.512-0.576,2.089,0c0.577,0.578,0.577,1.512,0,2.09l-5.954,5.951
				C32.603,178.3,32.226,178.447,31.847,178.447z"/>
		</g>
		<g id="XMLID_352_">
			<path id="XMLID_484_" fill="#0686D8" d="M37.8,178.447c-0.379,0-0.756-0.146-1.044-0.436l-5.954-5.951
				c-0.577-0.578-0.577-1.512,0-2.09c0.577-0.576,1.512-0.576,2.089,0l5.954,5.953c0.577,0.576,0.577,1.512,0,2.088
				C38.556,178.3,38.179,178.447,37.8,178.447z"/>
		</g>
	</g>
	<g id="XMLID_274_">
		<g id="XMLID_278_">
			<path id="XMLID_483_" fill="#0686D8" d="M390.672,125.56c-0.379,0-0.756-0.146-1.045-0.434c-0.576-0.578-0.576-1.512,0-2.09
				l5.955-5.951c0.576-0.578,1.512-0.578,2.088,0c0.578,0.576,0.578,1.512,0,2.088l-5.953,5.953
				C391.428,125.414,391.051,125.56,390.672,125.56z"/>
		</g>
		<g id="XMLID_276_">
			<path id="XMLID_478_" fill="#0686D8" d="M396.625,125.56c-0.379,0-0.756-0.146-1.043-0.434l-5.955-5.953
				c-0.576-0.576-0.576-1.512,0-2.088c0.578-0.578,1.512-0.578,2.09,0l5.953,5.951c0.578,0.578,0.578,1.512,0,2.09
				C397.383,125.414,397.004,125.56,396.625,125.56z"/>
		</g>
	</g>
	<g id="XMLID_305_">
		<rect id="XMLID_477_" x="109.519" y="36.384" fill="#0686D8" width="42.975" height="2.955"/>
	</g>
	<g id="XMLID_132_">
		<rect id="XMLID_476_" x="130.308" y="23.602" fill="#0686D8" width="120.1" height="2.955"/>
	</g>
	<g id="XMLID_302_">
		<rect id="XMLID_38_" x="97.873" y="36.384" fill="#0686D8" width="7.706" height="2.955"/>
	</g>
	<g id="XMLID_26_">
		<rect id="XMLID_27_" x="341.688" y="119.628" fill="#0686D8" width="42.975" height="2.955"/>
	</g>
	<g id="XMLID_25_">
		<rect id="XMLID_473_" x="32.383" y="101.277" fill="#0686D8" width="57.687" height="2.953"/>
	</g>
	<g id="XMLID_134_">
		<rect id="XMLID_472_" x="330.041" y="119.628" fill="#0686D8" width="7.707" height="2.955"/>
	</g>
	<g id="XMLID_285_">
		<path fill="#0686D8" d="M347.814,145.185c0,1.459-1.182,2.639-2.637,2.639c-1.457,0-2.637-1.18-2.637-2.639
			c0-1.453,1.18-2.635,2.637-2.635C346.633,142.55,347.814,143.732,347.814,145.185z"/>
	</g>
	<g id="XMLID_345_">
		<circle fill="#0686D8" cx="122.605" cy="2.635" r="2.636"/>
	</g>
	<g id="XMLID_342_">
		<circle fill="#0686D8" cx="46.658" cy="42.758" r="2.636"/>
	</g>
	<g id="XMLID_337_">
		<circle fill="#0686D8" cx="44.022" cy="142.55" r="2.636"/>
	</g>
	<g id="XMLID_328_">
		<path fill="#0686D8" d="M291.801,37.487c0,1.454-1.18,2.635-2.635,2.635c-1.457,0-2.637-1.181-2.637-2.635
			c0-1.458,1.18-2.637,2.637-2.637C290.621,34.85,291.801,36.028,291.801,37.487z"/>
	</g>
	<g id="XMLID_325_">
		<circle fill="#0686D8" cx="365.306" cy="89.695" r="1.72"/>
	</g>
	<g id="XMLID_344_">
		<circle fill="#0686D8" cx="223.768" cy="45.394" r="1.721"/>
	</g>
	<g id="XMLID_340_">
		<circle fill="#0686D8" cx="70.387" cy="87.976" r="1.72"/>
	</g>
	<g id="XMLID_28_">
		<g id="XMLID_16_">
			<g id="XMLID_24_">
				<path fill="#FFFFFF" d="M227.479,198.521V64.159c0-3.902-3.16-7.062-7.062-7.062H116.03c-3.901,0-7.063,3.16-7.063,7.062
					v134.362H227.479z"/>
			</g>
			<g id="XMLID_100_">
				<path fill="#5FB0E5" d="M108.967,75.404V63.035c0-3.28,2.659-5.938,5.938-5.938h106.636c3.279,0,5.938,2.658,5.938,5.938v12.369
					H108.967z"/>
			</g>
			<g id="XMLID_99_">
				<path id="XMLID_471_" fill="#0686D8" d="M110.444,115.789h-2.955V63.035c0-4.09,3.326-7.416,7.416-7.416h15.737v2.955h-15.737
					c-2.46,0-4.461,2.001-4.461,4.461V115.789z"/>
			</g>
			<g id="XMLID_94_">
				<path id="XMLID_23_" fill="#0686D8" d="M228.955,160.218h-2.953V63.035c0-2.46-2.002-4.461-4.461-4.461h-70.309v-2.955h70.309
					c4.09,0,7.414,3.326,7.414,7.416V160.218z"/>
			</g>
			<g id="XMLID_92_">
				<rect id="XMLID_469_" x="136.391" y="55.619" fill="#0686D8" width="8.141" height="2.955"/>
			</g>
			<g id="XMLID_22_">
				<rect id="XMLID_468_" x="108.967" y="74.248" fill="#0686D8" width="118.512" height="2.955"/>
			</g>
			<g id="XMLID_21_">
				<rect id="XMLID_467_" x="122.577" y="65.78" fill="#0686D8" width="4.742" height="2.955"/>
			</g>
			<g id="XMLID_89_">
				<rect id="XMLID_466_" x="133.555" y="65.78" fill="#0686D8" width="4.742" height="2.955"/>
			</g>
			<g id="XMLID_20_">
				<rect id="XMLID_448_" x="144.534" y="65.78" fill="#0686D8" width="4.742" height="2.955"/>
			</g>
			<g id="XMLID_19_">
				<rect x="123.745" y="85.113" fill="#D2E9F7" width="88.957" height="27.792"/>
			</g>
			<g id="XMLID_85_">
				<rect x="123.745" y="122.621" fill="#D2E9F7" width="35.503" height="27.793"/>
			</g>
			<g id="XMLID_18_">
				<rect id="XMLID_447_" x="172.336" y="124.888" fill="#0686D8" width="40.908" height="2.953"/>
			</g>
			<g id="XMLID_83_">
				<rect id="XMLID_446_" x="172.336" y="134.96" fill="#0686D8" width="40.908" height="2.953"/>
			</g>
			<g id="XMLID_17_">
				<rect id="XMLID_445_" x="172.336" y="145.035" fill="#0686D8" width="20.453" height="2.955"/>
			</g>
		</g>
		<g id="XMLID_10_">
			<g id="XMLID_13_">
				<g id="XMLID_850_">
					<rect id="XMLID_444_" x="141.298" y="113.617" fill="#0686D8" width="2.955" height="10.273"/>
				</g>
				<g id="XMLID_849_">
					
						<rect id="XMLID_443_" x="149.03" y="120.831" transform="matrix(0.8655 0.5008 -0.5008 0.8655 82.0388 -58.7867)" fill="#0686D8" width="2.956" height="5.139"/>
				</g>
				<g id="XMLID_848_">
					
						<rect id="XMLID_440_" x="156.907" y="122.66" transform="matrix(0.4975 0.8674 -0.8674 0.4975 190.4422 -73.1748)" fill="#0686D8" width="2.954" height="10.277"/>
				</g>
				<g id="XMLID_845_">
					
						<rect id="XMLID_439_" x="133.415" y="147.451" transform="matrix(0.8605 0.5095 -0.5095 0.8605 95.2936 -47.7891)" fill="#0686D8" width="2.955" height="5.256"/>
				</g>
				<g id="XMLID_844_">
					
						<rect id="XMLID_438_" x="125.607" y="140.421" transform="matrix(0.4894 0.8721 -0.8721 0.4894 191.8294 -36.5019)" fill="#0686D8" width="2.956" height="10.276"/>
				</g>
				<g id="XMLID_843_">
					
						<rect id="XMLID_437_" x="124.78" y="135.031" transform="matrix(0.9996 0.027 -0.027 0.9996 3.7291 -3.3861)" fill="#0686D8" width="5.14" height="2.952"/>
				</g>
				<g id="XMLID_15_">
					
						<rect id="XMLID_436_" x="122.19" y="126.044" transform="matrix(0.8585 0.5129 -0.5129 0.8585 83.4235 -47.2541)" fill="#0686D8" width="10.275" height="2.954"/>
				</g>
				<g id="XMLID_14_">
					
						<rect id="XMLID_434_" x="132.848" y="121.867" transform="matrix(0.4856 0.8742 -0.8742 0.4856 177.4417 -54.8499)" fill="#0686D8" width="4.955" height="2.954"/>
				</g>
			</g>
			<g id="XMLID_12_">
				<polygon id="XMLID_433_" fill="#0686D8" points="144.505,146.021 140.39,134.429 152.234,138.107 151.357,140.931 145.149,139 
					147.29,145.033 				"/>
			</g>
			<g id="XMLID_11_">
				
					<rect id="XMLID_432_" x="141.632" y="142.798" transform="matrix(0.7053 0.7089 -0.7089 0.7053 146.5649 -64.024)" fill="#0686D8" width="17.316" height="2.955"/>
			</g>
		</g>
		<g id="XMLID_29_">
			<g id="XMLID_70_">
				<polygon fill="#FFFFFF" points="219.555,164.185 252.17,164.185 256.504,167.796 256.504,195.794 253.613,198.521 
					219.555,198.521 216.666,195.794 216.666,166.353 				"/>
			</g>
			<g id="XMLID_69_">
				<polygon fill="#FFFFFF" points="147.929,164.185 213.773,164.185 216.666,166.353 216.666,195.794 213.773,198.521 
					146.482,198.521 143.593,195.794 143.593,167.796 				"/>
			</g>
			<g id="XMLID_9_">
				<polygon fill="#5FB0E5" points="253.613,198.521 256.504,195.794 256.504,190.191 216.666,190.191 216.666,195.794 
					219.555,198.521 				"/>
			</g>
			<g id="XMLID_66_">
				<polygon fill="#5FB0E5" points="143.627,190.191 143.627,195.828 146.482,198.521 213.773,198.521 216.666,195.794 
					216.666,190.191 				"/>
			</g>
			<g id="XMLID_65_">
				<polygon fill="#5FB0E5" points="256.504,173.992 256.504,167.796 252.17,164.185 219.555,164.185 216.666,166.353 
					216.666,173.992 				"/>
			</g>
			<g id="XMLID_63_">
				<polygon fill="#5FB0E5" points="216.666,173.992 216.666,166.353 213.773,164.185 147.929,164.185 143.593,167.796 
					143.593,173.992 				"/>
			</g>
			<g id="XMLID_48_">
				<rect id="XMLID_430_" x="225.488" y="182.96" fill="#0686D8" width="22.193" height="2.955"/>
			</g>
			<g id="XMLID_40_">
				<rect id="XMLID_417_" x="225.488" y="176.445" fill="#0686D8" width="22.193" height="2.955"/>
			</g>
			<g id="XMLID_39_">
				<rect id="XMLID_413_" x="153.255" y="183.164" fill="#0686D8" width="50.877" height="2.955"/>
			</g>
			<g id="XMLID_37_">
				<rect id="XMLID_409_" x="153.255" y="176.646" fill="#0686D8" width="50.877" height="2.955"/>
			</g>
			<g id="XMLID_36_">
				<rect x="215.041" y="168.189" fill="#0686D8" width="3.18" height="3.18"/>
			</g>
			<g id="XMLID_35_">
				<rect x="215.041" y="173.992" fill="#0686D8" width="3.18" height="3.178"/>
			</g>
			<g id="XMLID_34_">
				<rect x="215.041" y="179.792" fill="#0686D8" width="3.18" height="3.178"/>
			</g>
			<g id="XMLID_33_">
				<rect x="215.041" y="185.595" fill="#0686D8" width="3.18" height="3.178"/>
			</g>
			<g id="XMLID_32_">
				<rect x="215.041" y="191.396" fill="#0686D8" width="3.18" height="3.178"/>
			</g>
			<g id="XMLID_31_">
				<polygon id="XMLID_404_" fill="#0686D8" points="254.201,200 218.969,200 215.652,196.869 217.68,194.72 220.143,197.044 
					253.027,197.044 255.025,195.16 255.025,168.49 251.635,165.662 220.047,165.662 217.553,167.533 215.779,165.171 
					219.062,162.707 252.703,162.707 257.98,167.105 257.98,196.433 				"/>
			</g>
			<g id="XMLID_30_">
				<polygon id="XMLID_402_" fill="#0686D8" points="214.361,200 145.897,200 142.116,196.433 142.116,167.105 147.394,162.707 
					214.268,162.707 217.553,165.169 215.779,167.535 213.281,165.662 148.464,165.662 145.07,168.49 145.07,195.158 
					147.071,197.044 213.188,197.044 215.652,194.72 217.68,196.869 				"/>
			</g>
		</g>
	</g>
	<g id="XMLID_431_" opacity="0.3">
		<path id="XMLID_120_" fill="#0686D8" d="M118.031,119.142H64.516c-1.979,0-3.591,1.609-3.591,3.59v73.678
			c0,1.979,1.612,3.59,3.591,3.59h53.515c1.979,0,3.591-1.611,3.591-3.592v-73.676C121.623,120.753,120.011,119.142,118.031,119.142
			z"/>
	</g>
	<g id="XMLID_122_">
		<g id="XMLID_8_">
			<path fill="#D2E9F7" d="M115.076,198.521H61.562c-1.167,0-2.114-0.945-2.114-2.111v-73.678c0-1.166,0.947-2.113,2.114-2.113
				h53.515c1.168,0,2.114,0.947,2.114,2.113v73.676C117.19,197.576,116.244,198.521,115.076,198.521z"/>
		</g>
		<g id="XMLID_127_">
			<path id="XMLID_397_" fill="#0686D8" d="M115.076,200H61.562c-1.979,0-3.591-1.611-3.591-3.59v-73.678
				c0-1.98,1.612-3.59,3.591-3.59h53.515c1.979,0,3.592,1.611,3.592,3.59v73.676C118.668,198.388,117.056,200,115.076,200z
				 M61.562,122.095c-0.352,0-0.637,0.287-0.637,0.637v73.678c0,0.35,0.285,0.635,0.637,0.635h53.515
				c0.352,0,0.637-0.285,0.637-0.637v-73.676c0-0.35-0.285-0.637-0.637-0.637H61.562z"/>
		</g>
		<g id="XMLID_2_">
			<g id="XMLID_126_">
				<path id="XMLID_389_" fill="#0686D8" d="M88.32,177.257c-9.755,0-17.69-7.934-17.69-17.688c0-9.752,7.935-17.688,17.69-17.688
					c9.753,0,17.688,7.936,17.688,17.688C106.008,169.324,98.073,177.257,88.32,177.257z M88.32,144.837
					c-8.125,0-14.735,6.607-14.735,14.732c0,8.123,6.61,14.732,14.735,14.732c8.124,0,14.733-6.609,14.733-14.732
					C103.053,151.445,96.444,144.837,88.32,144.837z"/>
			</g>
			<g id="XMLID_495_">
				<path id="XMLID_386_" fill="#0686D8" d="M95.195,175.556l-2.505-1.564c2.449-3.918,3.797-9.053,3.797-14.463
					c0-5.365-1.325-10.465-3.73-14.359l2.512-1.553c2.691,4.355,4.173,10.006,4.173,15.912
					C99.443,165.484,97.935,171.179,95.195,175.556z"/>
			</g>
			<g id="XMLID_494_">
				<path id="XMLID_378_" fill="#0686D8" d="M81.856,175.556c-2.741-4.377-4.251-10.072-4.251-16.027
					c0-5.898,1.483-11.549,4.174-15.912l2.516,1.553c-2.408,3.902-3.736,9-3.736,14.359c0,5.41,1.351,10.545,3.801,14.463
					L81.856,175.556z"/>
			</g>
			<g id="XMLID_7_">
				<rect id="XMLID_373_" x="86.842" y="143.361" fill="#0686D8" width="2.955" height="32.42"/>
			</g>
			<g id="XMLID_5_">
				<rect id="XMLID_6_" x="72.107" y="158.091" fill="#0686D8" width="32.424" height="2.955"/>
			</g>
			<g id="XMLID_4_">
				<rect id="XMLID_228_" x="74.602" y="150.392" fill="#0686D8" width="27.997" height="2.955"/>
			</g>
			<g id="XMLID_3_">
				<rect id="XMLID_218_" x="74.054" y="165.796" fill="#0686D8" width="28.248" height="2.955"/>
			</g>
		</g>
	</g>
	<g id="XMLID_293_">
		<g id="XMLID_338_">
			<rect id="XMLID_1_" x="29.428" y="197.044" fill="#0686D8" width="5.396" height="2.955"/>
		</g>
		<g id="XMLID_341_">
			<rect id="XMLID_159_" x="364.197" y="197.044" fill="#0686D8" width="11.916" height="2.955"/>
		</g>
		<g id="XMLID_343_">
			<rect id="XMLID_123_" x="38.416" y="197.044" fill="#0686D8" width="322.705" height="2.955"/>
		</g>
	</g>
</g>
</svg>
